<svg width="29" height="30" viewBox="0 0 29 30" fill="none" xmlns="http://www.w3.org/2000/svg">
<path d="M11.0259 9.04298C10.8054 9.26481 10.6816 9.5649 10.6816 9.87769C10.6816 10.1905 10.8054 10.4906 11.0259 10.7124L15.2172 14.9629L11.0259 19.1542C10.8054 19.376 10.6816 19.6761 10.6816 19.9889C10.6816 20.3017 10.8054 20.6018 11.0259 20.8236C11.136 20.9346 11.267 21.0227 11.4112 21.0828C11.5555 21.1429 11.7103 21.1738 11.8666 21.1738C12.0229 21.1738 12.1776 21.1429 12.3219 21.0828C12.4662 21.0227 12.5971 20.9346 12.7072 20.8236L17.7273 15.8035C17.8382 15.6935 17.9263 15.5625 17.9864 15.4182C18.0465 15.2739 18.0775 15.1192 18.0775 14.9629C18.0775 14.8066 18.0465 14.6518 17.9864 14.5076C17.9263 14.3633 17.8382 14.2323 17.7273 14.1223L12.7072 9.04298C12.5971 8.93201 12.4662 8.84393 12.3219 8.78382C12.1776 8.72371 12.0229 8.69276 11.8666 8.69276C11.7103 8.69276 11.5555 8.72371 11.4112 8.78382C11.267 8.84393 11.136 8.93201 11.0259 9.04298Z" fill="#717A8C"/>
</svg>
