<svg width="24" height="24" viewBox="0 0 24 24" fill="none" xmlns="http://www.w3.org/2000/svg">
<path d="M9.16982 7.0003C8.98357 7.18766 8.87903 7.44111 8.87903 7.7053C8.87903 7.96948 8.98357 8.22293 9.16982 8.4103L12.7098 12.0003L9.16982 15.5403C8.98357 15.7277 8.87903 15.9811 8.87903 16.2453C8.87903 16.5095 8.98357 16.7629 9.16982 16.9503C9.26278 17.044 9.37338 17.1184 9.49524 17.1692C9.6171 17.22 9.74781 17.2461 9.87982 17.2461C10.0118 17.2461 10.1425 17.22 10.2644 17.1692C10.3863 17.1184 10.4969 17.044 10.5898 16.9503L14.8298 12.7103C14.9235 12.6173 14.9979 12.5067 15.0487 12.3849C15.0995 12.263 15.1256 12.1323 15.1256 12.0003C15.1256 11.8683 15.0995 11.7376 15.0487 11.6157C14.9979 11.4939 14.9235 11.3833 14.8298 11.2903L10.5898 7.0003C10.4969 6.90657 10.3863 6.83217 10.2644 6.7814C10.1425 6.73064 10.0118 6.7045 9.87982 6.7045C9.74781 6.7045 9.6171 6.73064 9.49524 6.7814C9.37338 6.83217 9.26278 6.90657 9.16982 7.0003Z" fill="#717A8C"/>
</svg>
