<svg width="29" height="30" viewBox="0 0 29 30" fill="none" xmlns="http://www.w3.org/2000/svg">
<path d="M11.0259 9.09571C10.8054 9.31755 10.6816 9.61763 10.6816 9.93042C10.6816 10.2432 10.8054 10.5433 11.0259 10.7651L15.2172 15.0156L11.0259 19.2069C10.8054 19.4288 10.6816 19.7288 10.6816 20.0416C10.6816 20.3544 10.8054 20.6545 11.0259 20.8763C11.136 20.9873 11.267 21.0754 11.4112 21.1355C11.5555 21.1956 11.7103 21.2266 11.8666 21.2266C12.0229 21.2266 12.1776 21.1956 12.3219 21.1355C12.4662 21.0754 12.5971 20.9873 12.7072 20.8763L17.7273 15.8563C17.8382 15.7462 17.9263 15.6152 17.9864 15.471C18.0465 15.3267 18.0775 15.1719 18.0775 15.0156C18.0775 14.8593 18.0465 14.7046 17.9864 14.5603C17.9263 14.416 17.8382 14.2851 17.7273 14.175L12.7072 9.09571C12.5971 8.98474 12.4662 8.89666 12.3219 8.83655C12.1776 8.77644 12.0229 8.74549 11.8666 8.74549C11.7103 8.74549 11.5555 8.77644 11.4112 8.83655C11.267 8.89666 11.136 8.98474 11.0259 9.09571Z" fill="#717A8C"/>
</svg>
