<svg width="29" height="30" viewBox="0 0 29 30" fill="none" xmlns="http://www.w3.org/2000/svg">
<path d="M11.0259 9.15431C10.8054 9.37614 10.6816 9.67622 10.6816 9.98902C10.6816 10.3018 10.8054 10.6019 11.0259 10.8237L15.2172 15.0742L11.0259 19.2655C10.8054 19.4874 10.6816 19.7874 10.6816 20.1002C10.6816 20.413 10.8054 20.7131 11.0259 20.9349C11.136 21.0459 11.267 21.134 11.4112 21.1941C11.5555 21.2542 11.7103 21.2852 11.8666 21.2852C12.0229 21.2852 12.1776 21.2542 12.3219 21.1941C12.4662 21.134 12.5971 21.0459 12.7072 20.9349L17.7273 15.9148C17.8382 15.8048 17.9263 15.6738 17.9864 15.5296C18.0465 15.3853 18.0775 15.2305 18.0775 15.0742C18.0775 14.9179 18.0465 14.7632 17.9864 14.6189C17.9263 14.4746 17.8382 14.3437 17.7273 14.2336L12.7072 9.15431C12.5971 9.04333 12.4662 8.95525 12.3219 8.89514C12.1776 8.83504 12.0229 8.80409 11.8666 8.80409C11.7103 8.80409 11.5555 8.83504 11.4112 8.89514C11.267 8.95525 11.136 9.04333 11.0259 9.15431Z" fill="#717A8C"/>
</svg>
