<svg width="24" height="24" viewBox="0 0 24 24" fill="none" xmlns="http://www.w3.org/2000/svg">
<path d="M9.1697 7.0003C8.98345 7.18766 8.87891 7.44111 8.87891 7.7053C8.87891 7.96948 8.98345 8.22293 9.1697 8.4103L12.7097 12.0003L9.1697 15.5403C8.98345 15.7277 8.87891 15.9811 8.87891 16.2453C8.87891 16.5095 8.98345 16.7629 9.1697 16.9503C9.26266 17.044 9.37326 17.1184 9.49512 17.1692C9.61698 17.22 9.74769 17.2461 9.8797 17.2461C10.0117 17.2461 10.1424 17.22 10.2643 17.1692C10.3861 17.1184 10.4967 17.044 10.5897 16.9503L14.8297 12.7103C14.9234 12.6173 14.9978 12.5067 15.0486 12.3849C15.0994 12.263 15.1255 12.1323 15.1255 12.0003C15.1255 11.8683 15.0994 11.7376 15.0486 11.6157C14.9978 11.4939 14.9234 11.3833 14.8297 11.2903L10.5897 7.0003C10.4967 6.90657 10.3861 6.83217 10.2643 6.7814C10.1424 6.73064 10.0117 6.7045 9.8797 6.7045C9.74769 6.7045 9.61698 6.73064 9.49512 6.7814C9.37326 6.83217 9.26266 6.90657 9.1697 7.0003Z" fill="#717A8C"/>
</svg>
