<svg width="29" height="30" viewBox="0 0 29 30" fill="none" xmlns="http://www.w3.org/2000/svg">
<path d="M11.0259 9.21095C10.8054 9.43278 10.6816 9.73287 10.6816 10.0457C10.6816 10.3584 10.8054 10.6585 11.0259 10.8804L15.2172 15.1309L11.0259 19.3222C10.8054 19.544 10.6816 19.8441 10.6816 20.1569C10.6816 20.4697 10.8054 20.7697 11.0259 20.9916C11.136 21.1025 11.267 21.1906 11.4112 21.2507C11.5555 21.3108 11.7103 21.3418 11.8666 21.3418C12.0229 21.3418 12.1776 21.3108 12.3219 21.2507C12.4662 21.1906 12.5971 21.1025 12.7072 20.9916L17.7273 15.9715C17.8382 15.8614 17.9263 15.7305 17.9864 15.5862C18.0465 15.4419 18.0775 15.2872 18.0775 15.1309C18.0775 14.9746 18.0465 14.8198 17.9864 14.6755C17.9263 14.5313 17.8382 14.4003 17.7273 14.2902L12.7072 9.21095C12.5971 9.09998 12.4662 9.0119 12.3219 8.95179C12.1776 8.89168 12.0229 8.86073 11.8666 8.86073C11.7103 8.86073 11.5555 8.89168 11.4112 8.95179C11.267 9.0119 11.136 9.09998 11.0259 9.21095Z" fill="#717A8C"/>
</svg>
