<svg width="39" height="38" viewBox="0 0 39 38" fill="none" xmlns="http://www.w3.org/2000/svg">
<circle cx="19.3597" cy="19.016" r="18.9437" fill="#3B99FC"/>
<path fill-rule="evenodd" clip-rule="evenodd" d="M26.8179 14.2074C22.6988 10.0949 16.0204 10.0949 11.9014 14.2074L11.3572 14.7507C11.1513 14.9563 11.1513 15.2897 11.3572 15.4953L13.0531 17.1885C13.156 17.2913 13.323 17.2913 13.426 17.1885L14.1566 16.459C17.0301 13.59 21.6891 13.59 24.5627 16.459L25.2449 17.1402C25.3479 17.243 25.5148 17.243 25.6178 17.1402L27.3136 15.447C27.5196 15.2414 27.5196 14.908 27.3136 14.7024L26.8179 14.2074ZM31.8343 19.2152L30.325 17.7083C30.1191 17.5027 29.7851 17.5027 29.5792 17.7083L24.7491 22.5307C24.6976 22.5821 24.6141 22.5821 24.5626 22.5307L19.7325 17.7082L19.7325 17.7082C19.5265 17.5026 19.1926 17.5026 18.9866 17.7082L14.1567 22.5307C14.1052 22.5821 14.0217 22.5821 13.9702 22.5307L9.14005 17.7082C8.93409 17.5026 8.60018 17.5026 8.39422 17.7082L6.88493 19.2151C6.67898 19.4208 6.67898 19.7541 6.88493 19.9598L13.6906 26.7546C13.8966 26.9602 14.2305 26.9602 14.4364 26.7546L19.2664 21.9322C19.3179 21.8808 19.4014 21.8808 19.4529 21.9322L24.283 26.7546C24.489 26.9602 24.8229 26.9602 25.0288 26.7546L31.8343 19.9599C32.0403 19.7542 32.0403 19.4208 31.8343 19.2152Z" fill="white"/>
</svg>
