<svg width="32" height="32" viewBox="0 0 32 32" fill="none" xmlns="http://www.w3.org/2000/svg">
<circle cx="16" cy="16" r="16" fill="#3B99FC"/>
<path fill-rule="evenodd" clip-rule="evenodd" d="M22.2993 11.9391C18.8203 8.46562 13.1797 8.46562 9.70069 11.9391L9.24112 12.3979C9.06717 12.5716 9.06717 12.8532 9.24112 13.0268L10.6734 14.4569C10.7604 14.5437 10.9014 14.5437 10.9884 14.4569L11.6054 13.8408C14.0325 11.4176 17.9675 11.4176 20.3945 13.8408L20.9707 14.4161C21.0577 14.5029 21.1987 14.5029 21.2857 14.4161L22.718 12.986C22.8919 12.8124 22.8919 12.5308 22.718 12.3571L22.2993 11.9391ZM26.5362 16.1693L25.2614 14.8965C25.0875 14.7228 24.8054 14.7228 24.6315 14.8965L20.552 18.9696C20.5085 19.013 20.438 19.013 20.3945 18.9696L16.3149 14.8964L16.3149 14.8964C16.1409 14.7228 15.8589 14.7228 15.6849 14.8965L11.6055 18.9696C11.5621 19.013 11.4916 19.013 11.4481 18.9696L7.36846 14.8965C7.19451 14.7228 6.91248 14.7228 6.73853 14.8965L5.46378 16.1692C5.28983 16.3428 5.28983 16.6244 5.46378 16.7981L11.2119 22.5371C11.3858 22.7107 11.6679 22.7107 11.8418 22.5371L15.9213 18.464C15.9648 18.4206 16.0353 18.4206 16.0788 18.464L20.1583 22.5371C20.3323 22.7107 20.6143 22.7107 20.7882 22.5371L26.5362 16.7982C26.7101 16.6245 26.7101 16.3429 26.5362 16.1693Z" fill="white"/>
</svg>
