<svg width="32" height="32" viewBox="0 0 32 32" fill="none" xmlns="http://www.w3.org/2000/svg">
<circle cx="16" cy="16" r="16" fill="#3B99FC"/>
<path fill-rule="evenodd" clip-rule="evenodd" d="M22.2995 11.9391C18.8205 8.46562 13.1799 8.46562 9.70087 11.9391L9.24131 12.3979C9.06736 12.5716 9.06736 12.8532 9.24131 13.0268L10.6736 14.4569C10.7606 14.5437 10.9016 14.5437 10.9886 14.4569L11.6056 13.8408C14.0327 11.4176 17.9677 11.4176 20.3947 13.8408L20.9709 14.4161C21.0579 14.5029 21.1989 14.5029 21.2859 14.4161L22.7182 12.986C22.8921 12.8124 22.8921 12.5308 22.7182 12.3571L22.2995 11.9391ZM26.5364 16.1693L25.2616 14.8965C25.0877 14.7228 24.8056 14.7228 24.6317 14.8965L20.5521 18.9696C20.5087 19.013 20.4382 19.013 20.3947 18.9696L16.3151 14.8964L16.3151 14.8964C16.1411 14.7228 15.8591 14.7228 15.6851 14.8965L11.6057 18.9696C11.5622 19.013 11.4917 19.013 11.4482 18.9696L7.36864 14.8965C7.19469 14.7228 6.91266 14.7228 6.73871 14.8965L5.46396 16.1692C5.29001 16.3428 5.29001 16.6244 5.46396 16.7981L11.2121 22.5371C11.386 22.7107 11.6681 22.7107 11.842 22.5371L15.9215 18.464C15.9649 18.4206 16.0355 18.4206 16.0789 18.464L20.1585 22.5371C20.3324 22.7107 20.6145 22.7107 20.7884 22.5371L26.5364 16.7982C26.7103 16.6245 26.7103 16.3429 26.5364 16.1693Z" fill="white"/>
</svg>
