<svg width="39" height="39" viewBox="0 0 39 39" fill="none" xmlns="http://www.w3.org/2000/svg">
<circle cx="19.3597" cy="19.1293" r="18.9437" fill="#F7F9FB"/>
<path d="M30.7392 7.28906L20.8721 14.6889L22.707 10.328L30.7392 7.28906Z" fill="#E17726" stroke="#E17726" stroke-width="0.295996" stroke-linecap="round" stroke-linejoin="round"/>
<path d="M7.97949 7.28906L17.7588 14.758L16.0118 10.3279L7.97949 7.28906Z" fill="#E27625" stroke="#E27625" stroke-width="0.295996" stroke-linecap="round" stroke-linejoin="round"/>
<path d="M27.1869 24.4473L24.5615 28.5123L30.1832 30.0811L31.7936 24.5361L27.1869 24.4473Z" fill="#E27625" stroke="#E27625" stroke-width="0.295996" stroke-linecap="round" stroke-linejoin="round"/>
<path d="M6.93555 24.5361L8.53614 30.0811L14.148 28.5123L11.5324 24.4473L6.93555 24.5361Z" fill="#E27625" stroke="#E27625" stroke-width="0.295996" stroke-linecap="round" stroke-linejoin="round"/>
<path d="M13.8457 17.5799L12.2842 19.9676L17.8472 20.2241L17.6618 14.1562L13.8457 17.5799Z" fill="#E27625" stroke="#E27625" stroke-width="0.295996" stroke-linecap="round" stroke-linejoin="round"/>
<path d="M24.8735 17.5806L20.999 14.0879L20.8721 20.2249L26.4351 19.9683L24.8735 17.5806Z" fill="#E27625" stroke="#E27625" stroke-width="0.295996" stroke-linecap="round" stroke-linejoin="round"/>
<path d="M14.1475 28.5109L17.5145 26.8633L14.6159 24.5742L14.1475 28.5109Z" fill="#E27625" stroke="#E27625" stroke-width="0.295996" stroke-linecap="round" stroke-linejoin="round"/>
<path opacity="0.8" d="M21.2041 26.8633L24.5614 28.5109L24.1027 24.5742L21.2041 26.8633Z" fill="#E27625" stroke="#E27625" stroke-width="0.295996" stroke-linecap="round" stroke-linejoin="round"/>
<path d="M24.5614 28.511L21.2041 26.8633L21.4773 29.0734L21.448 30.0107L24.5614 28.511Z" fill="#D5BFB2" stroke="#D5BFB2" stroke-width="0.295996" stroke-linecap="round" stroke-linejoin="round"/>
<path d="M14.1475 28.511L17.2706 30.0107L17.2511 29.0734L17.5145 26.8633L14.1475 28.511Z" fill="#D5BFB2" stroke="#D5BFB2" stroke-width="0.295996" stroke-linecap="round" stroke-linejoin="round"/>
<path d="M17.3294 23.1155L14.5381 22.2868L16.5096 21.3691L17.3294 23.1155Z" fill="#233447" stroke="#233447" stroke-width="0.295996" stroke-linecap="round" stroke-linejoin="round"/>
<path d="M21.3896 23.1155L22.2095 21.3691L24.1907 22.2868L21.3896 23.1155Z" fill="#233447" stroke="#233447" stroke-width="0.295996" stroke-linecap="round" stroke-linejoin="round"/>
<path d="M14.1478 28.5123L14.6358 24.4473L11.5322 24.5361L14.1478 28.5123Z" fill="#CC6228" stroke="#CC6228" stroke-width="0.295996" stroke-linecap="round" stroke-linejoin="round"/>
<path d="M24.083 24.4473L24.5613 28.5123L27.1866 24.5361L24.083 24.4473Z" fill="#CC6228" stroke="#CC6228" stroke-width="0.295996" stroke-linecap="round" stroke-linejoin="round"/>
<path d="M26.4351 19.9688L20.8721 20.2253L21.3893 23.1162L22.2092 21.3698L24.1904 22.2874L26.4351 19.9688Z" fill="#CC6228" stroke="#CC6228" stroke-width="0.295996" stroke-linecap="round" stroke-linejoin="round"/>
<path d="M14.5387 22.2874L16.5101 21.3698L17.33 23.1162L17.8472 20.2253L12.2842 19.9688L14.5387 22.2874Z" fill="#CC6228" stroke="#CC6228" stroke-width="0.295996" stroke-linecap="round" stroke-linejoin="round"/>
<path d="M12.2842 19.9688L14.6168 24.5764L14.5387 22.2874L12.2842 19.9688Z" fill="#E27525" stroke="#E27525" stroke-width="0.295996" stroke-linecap="round" stroke-linejoin="round"/>
<path d="M24.1904 22.2874L24.1025 24.5764L26.4351 19.9688L24.1904 22.2874Z" fill="#E27525" stroke="#E27525" stroke-width="0.295996" stroke-linecap="round" stroke-linejoin="round"/>
<path d="M17.8474 20.2246L17.3301 23.1156L17.984 26.5293L18.1304 22.0302L17.8474 20.2246Z" fill="#E27525" stroke="#E27525" stroke-width="0.295996" stroke-linecap="round" stroke-linejoin="round"/>
<path d="M20.8719 20.2246L20.5986 22.0204L20.7353 26.5293L21.3892 23.1156L20.8719 20.2246Z" fill="#E27525" stroke="#E27525" stroke-width="0.295996" stroke-linecap="round" stroke-linejoin="round"/>
<path d="M21.3902 23.114L20.7363 26.5277L21.2048 26.8632L24.1035 24.5742L24.1913 22.2852L21.3902 23.114Z" fill="#F5841F" stroke="#F5841F" stroke-width="0.295996" stroke-linecap="round" stroke-linejoin="round"/>
<path d="M14.5381 22.2852L14.6162 24.5742L17.5148 26.8632L17.9833 26.5277L17.3294 23.114L14.5381 22.2852Z" fill="#F5841F" stroke="#F5841F" stroke-width="0.295996" stroke-linecap="round" stroke-linejoin="round"/>
<path d="M21.4478 30.0134L21.477 29.0761L21.2233 28.859H17.4951L17.2511 29.0761L17.2706 30.0134L14.1475 28.5137L15.2405 29.4214L17.456 30.9705H21.2525L23.4778 29.4214L24.5611 28.5137L21.4478 30.0134Z" fill="#C0AC9D" stroke="#C0AC9D" stroke-width="0.295996" stroke-linecap="round" stroke-linejoin="round"/>
<path d="M21.2046 26.8647L20.7362 26.5293H17.9839L17.5155 26.8647L17.252 29.0749L17.496 28.8578H21.2242L21.478 29.0749L21.2046 26.8647Z" fill="#161616" stroke="#161616" stroke-width="0.295996" stroke-linecap="round" stroke-linejoin="round"/>
<path d="M31.159 15.1724L31.9886 11.0877L30.7394 7.28906L21.2041 14.4423L24.8737 17.5798L30.0562 19.1092L31.1981 17.7575L30.7004 17.3924L31.4909 16.6623L30.8858 16.1887L31.6763 15.5769L31.159 15.1724Z" fill="#763E1A" stroke="#763E1A" stroke-width="0.295996" stroke-linecap="round" stroke-linejoin="round"/>
<path d="M6.73047 11.0877L7.56981 15.1724L7.03302 15.5769L7.83332 16.1887L7.22822 16.6623L8.01876 17.3924L7.52101 17.7575L8.66291 19.1092L13.8454 17.5798L17.515 14.4423L7.97972 7.28906L6.73047 11.0877Z" fill="#763E1A" stroke="#763E1A" stroke-width="0.295996" stroke-linecap="round" stroke-linejoin="round"/>
<path d="M30.056 19.1093L24.8736 17.5801L26.4351 19.9678L24.1025 24.5754L27.1866 24.536H31.7932L30.056 19.1093Z" fill="#F5841F" stroke="#F5841F" stroke-width="0.295996" stroke-linecap="round" stroke-linejoin="round"/>
<path d="M13.8454 17.5801L8.66302 19.1093L6.93555 24.536H11.5324L14.6165 24.5754L12.2839 19.9678L13.8454 17.5801Z" fill="#F5841F" stroke="#F5841F" stroke-width="0.295996" stroke-linecap="round" stroke-linejoin="round"/>
<path d="M20.8721 20.2243L21.2039 14.4424L22.7069 10.3281H16.0117L17.5147 14.4424L17.8465 20.2243L17.9734 22.0397L17.9832 26.529H20.7354L20.7452 22.0397L20.8721 20.2243Z" fill="#F5841F" stroke="#F5841F" stroke-width="0.295996" stroke-linecap="round" stroke-linejoin="round"/>
</svg>
