<svg width="32" height="32" viewBox="0 0 32 32" fill="none" xmlns="http://www.w3.org/2000/svg">
<circle cx="16" cy="16" r="16" fill="#F7F9FB"/>
<path d="M25.6117 6L17.2778 12.25L18.8276 8.56667L25.6117 6Z" fill="#E17726" stroke="#E17726" stroke-width="0.25" stroke-linecap="round" stroke-linejoin="round"/>
<path d="M6.38867 6L14.6483 12.3083L13.1728 8.56666L6.38867 6Z" fill="#E27625" stroke="#E27625" stroke-width="0.25" stroke-linecap="round" stroke-linejoin="round"/>
<path d="M22.611 20.4922L20.3936 23.9255L25.1416 25.2505L26.5018 20.5672L22.611 20.4922Z" fill="#E27625" stroke="#E27625" stroke-width="0.25" stroke-linecap="round" stroke-linejoin="round"/>
<path d="M5.50635 20.5672L6.85822 25.2505L11.5981 23.9255L9.38888 20.4922L5.50635 20.5672Z" fill="#E27625" stroke="#E27625" stroke-width="0.25" stroke-linecap="round" stroke-linejoin="round"/>
<path d="M11.3428 14.6924L10.0239 16.7091L14.7225 16.9258L14.5659 11.8008L11.3428 14.6924Z" fill="#E27625" stroke="#E27625" stroke-width="0.25" stroke-linecap="round" stroke-linejoin="round"/>
<path d="M20.6575 14.6922L17.385 11.7422L17.2778 16.9255L21.9764 16.7089L20.6575 14.6922Z" fill="#E27625" stroke="#E27625" stroke-width="0.25" stroke-linecap="round" stroke-linejoin="round"/>
<path d="M11.5981 23.9246L14.442 22.5329L11.9938 20.5996L11.5981 23.9246Z" fill="#E27625" stroke="#E27625" stroke-width="0.25" stroke-linecap="round" stroke-linejoin="round"/>
<path opacity="0.8" d="M17.5581 22.5329L20.3937 23.9246L20.0063 20.5996L17.5581 22.5329Z" fill="#E27625" stroke="#E27625" stroke-width="0.25" stroke-linecap="round" stroke-linejoin="round"/>
<path d="M20.3937 23.9248L17.5581 22.5332L17.7889 24.3998L17.7641 25.1915L20.3937 23.9248Z" fill="#D5BFB2" stroke="#D5BFB2" stroke-width="0.25" stroke-linecap="round" stroke-linejoin="round"/>
<path d="M11.5981 23.9248L14.236 25.1915L14.2195 24.3998L14.442 22.5332L11.5981 23.9248Z" fill="#D5BFB2" stroke="#D5BFB2" stroke-width="0.25" stroke-linecap="round" stroke-linejoin="round"/>
<path d="M14.2853 19.3676L11.9277 18.6676L13.5928 17.8926L14.2853 19.3676Z" fill="#233447" stroke="#233447" stroke-width="0.25" stroke-linecap="round" stroke-linejoin="round"/>
<path d="M17.7148 19.3676L18.4073 17.8926L20.0807 18.6676L17.7148 19.3676Z" fill="#233447" stroke="#233447" stroke-width="0.25" stroke-linecap="round" stroke-linejoin="round"/>
<path d="M11.5983 23.9255L12.0105 20.4922L9.38916 20.5672L11.5983 23.9255Z" fill="#CC6228" stroke="#CC6228" stroke-width="0.25" stroke-linecap="round" stroke-linejoin="round"/>
<path d="M19.9897 20.4922L20.3937 23.9255L22.6111 20.5672L19.9897 20.4922Z" fill="#CC6228" stroke="#CC6228" stroke-width="0.25" stroke-linecap="round" stroke-linejoin="round"/>
<path d="M21.9764 16.709L17.2778 16.9257L17.7147 19.3674L18.4072 17.8923L20.0805 18.6673L21.9764 16.709Z" fill="#CC6228" stroke="#CC6228" stroke-width="0.25" stroke-linecap="round" stroke-linejoin="round"/>
<path d="M11.9281 18.6673L13.5932 17.8923L14.2857 19.3674L14.7225 16.9257L10.0239 16.709L11.9281 18.6673Z" fill="#CC6228" stroke="#CC6228" stroke-width="0.25" stroke-linecap="round" stroke-linejoin="round"/>
<path d="M10.0239 16.709L11.9941 20.6007L11.9281 18.6673L10.0239 16.709Z" fill="#E27525" stroke="#E27525" stroke-width="0.25" stroke-linecap="round" stroke-linejoin="round"/>
<path d="M20.0805 18.6673L20.0063 20.6007L21.9765 16.709L20.0805 18.6673Z" fill="#E27525" stroke="#E27525" stroke-width="0.25" stroke-linecap="round" stroke-linejoin="round"/>
<path d="M14.7226 16.9258L14.2856 19.3675L14.8379 22.2508L14.9616 18.4508L14.7226 16.9258Z" fill="#E27525" stroke="#E27525" stroke-width="0.25" stroke-linecap="round" stroke-linejoin="round"/>
<path d="M17.2777 16.9258L17.0469 18.4425L17.1623 22.2508L17.7146 19.3675L17.2777 16.9258Z" fill="#E27525" stroke="#E27525" stroke-width="0.25" stroke-linecap="round" stroke-linejoin="round"/>
<path d="M17.7149 19.366L17.1626 22.2493L17.5583 22.5327L20.0065 20.5993L20.0807 18.666L17.7149 19.366Z" fill="#F5841F" stroke="#F5841F" stroke-width="0.25" stroke-linecap="round" stroke-linejoin="round"/>
<path d="M11.9277 18.666L11.9937 20.5993L14.4419 22.5327L14.8376 22.2493L14.2853 19.366L11.9277 18.666Z" fill="#F5841F" stroke="#F5841F" stroke-width="0.25" stroke-linecap="round" stroke-linejoin="round"/>
<path d="M17.7641 25.1925L17.7887 24.4008L17.5745 24.2174H14.4256L14.2195 24.4008L14.236 25.1925L11.5981 23.9258L12.5214 24.6924L14.3926 26.0008H17.5991L19.4786 24.6924L20.3936 23.9258L17.7641 25.1925Z" fill="#C0AC9D" stroke="#C0AC9D" stroke-width="0.25" stroke-linecap="round" stroke-linejoin="round"/>
<path d="M17.5582 22.5333L17.1625 22.25H14.8379L14.4423 22.5333L14.2197 24.4L14.4258 24.2166H17.5747L17.789 24.4L17.5582 22.5333Z" fill="#161616" stroke="#161616" stroke-width="0.25" stroke-linecap="round" stroke-linejoin="round"/>
<path d="M25.9661 12.6583L26.6668 9.20833L25.6117 6L17.5581 12.0417L20.6575 14.6916L25.0346 15.9833L25.9991 14.8417L25.5787 14.5333L26.2464 13.9167L25.7353 13.5167L26.403 13L25.9661 12.6583Z" fill="#763E1A" stroke="#763E1A" stroke-width="0.25" stroke-linecap="round" stroke-linejoin="round"/>
<path d="M5.3335 9.20833L6.04241 12.6583L5.58904 13L6.26497 13.5167L5.7539 13.9167L6.42159 14.5333L6.00119 14.8417L6.96565 15.9833L11.3428 14.6916L14.4422 12.0417L6.38862 6L5.3335 9.20833Z" fill="#763E1A" stroke="#763E1A" stroke-width="0.25" stroke-linecap="round" stroke-linejoin="round"/>
<path d="M25.0347 15.983L20.6576 14.6914L21.9765 16.7081L20.0063 20.5997L22.6112 20.5664H26.502L25.0347 15.983Z" fill="#F5841F" stroke="#F5841F" stroke-width="0.25" stroke-linecap="round" stroke-linejoin="round"/>
<path d="M11.3425 14.6914L6.96539 15.983L5.50635 20.5664H9.38888L11.9937 20.5997L10.0236 16.7081L11.3425 14.6914Z" fill="#F5841F" stroke="#F5841F" stroke-width="0.25" stroke-linecap="round" stroke-linejoin="round"/>
<path d="M17.278 16.9247L17.5582 12.0414L18.8276 8.56641H13.1729L14.4423 12.0414L14.7225 16.9247L14.8297 18.4581L14.838 22.2497H17.1625L17.1708 18.4581L17.278 16.9247Z" fill="#F5841F" stroke="#F5841F" stroke-width="0.25" stroke-linecap="round" stroke-linejoin="round"/>
</svg>
